<?xml version="1.0" encoding="utf-8"?>
<!-- Svg Vector Icons : http://www.onlinewebfonts.com/icon -->
<!DOCTYPE svg PUBLIC "-//W3C//DTD SVG 1.1//EN" "http://www.w3.org/Graphics/SVG/1.1/DTD/svg11.dtd">
<svg version="1.1" xmlns="http://www.w3.org/2000/svg" xmlns:xlink="http://www.w3.org/1999/xlink" x="0px" y="0px" viewBox="0 0 1000 1000" enable-background="new 0 0 1000 1000" fill='#ffffff'  xml:space="preserve">
<metadata> Svg Vector Icons : http://www.onlinewebfonts.com/icon </metadata>
<g>
    <g>
      <g>
        <g>
          <g>
            <path d="M500,10C229.4,10,10,229.4,10,500c0,270.7,219.4,490,490,490c270.7,0,490-219.3,490-490C990,229.4,770.7,10,500,10z M500,924.7C265.8,924.7,75.3,734.2,75.3,500S265.8,75.3,500,75.3S924.7,265.8,924.7,500S734.2,924.7,500,924.7z" stroke-width="2"/>
            <path d="M558.5,259c-12.7-12.8-33.7-12.8-46.4,0c-12.9,12.8-12.9,33.6,0,46.5l173.1,195.7L512.1,696.9c-12.9,12.8-12.9,33.8,0,46.5c12.7,12.8,33.6,12.8,46.4,0l193.3-218.5c6.6-6.6,9.6-15.1,9.5-23.7c0.1-8.5-3-17.1-9.5-23.6L558.5,259z" stroke-width="2"/>
            <path d="M527,501.2c0.1-8.5-3-17.2-9.5-23.6L324.1,259c-12.8-12.8-33.6-12.8-46.5,0c-12.8,12.8-12.8,33.6,0,46.5l173.1,195.7L277.7,696.9c-12.8,12.8-12.8,33.8,0,46.5c12.8,12.8,33.6,12.8,46.5,0l193.4-218.5C524,518.4,527.1,509.8,527,501.2z" stroke-width="2"/>
          </g>
        </g>
        </g>
    </g>
</g>
</svg>